<svg fill="white" xmlns="http://www.w3.org/2000/svg" xmlns:xlink="http://www.w3.org/1999/xlink" x="0px" y="0px" viewBox="0 0 47.5 47.5" enable-background="new 0 0 50 50" xml:space="preserve"><g><path d="M1.167,25.519l3.476,12.987c0.63,0.174,1.115,0.397,1.512,0.581c0.999,0.472,1.74,0.464,2.704,0   c2.611-1.21,5.2-1.149,7.637,0.01c1,0.455,1.721,0.459,2.694-0.01c2.622-1.215,5.245-1.142,7.637,0.01   c0.991,0.451,1.694,0.459,2.704,0c2.495-1.186,5.108-1.191,7.627-0.01c0.99,0.468,1.722,0.469,2.714,0   c0.795-0.368,1.87-0.872,3.799-0.872l3.407-12.696c0.153-0.572-0.277-1.134-0.87-1.134H2.037   C1.445,24.386,1.014,24.947,1.167,25.519z M8.016,32.614c-1.415,0-2.558-1.143-2.558-2.558c0-1.405,1.144-2.549,2.558-2.549   c1.405,0,2.549,1.144,2.549,2.549C10.565,31.47,9.421,32.614,8.016,32.614z M16.069,32.614c-1.415,0-2.558-1.143-2.558-2.558   c0-1.405,1.144-2.549,2.558-2.549c1.405,0,2.559,1.144,2.559,2.549C18.628,31.47,17.475,32.614,16.069,32.614z M24.123,32.614   c-1.415,0-2.558-1.143-2.558-2.558c0-1.405,1.144-2.549,2.558-2.549c1.415,0,2.559,1.144,2.559,2.549   C26.681,31.47,25.538,32.614,24.123,32.614z M32.176,32.614c-1.405,0-2.558-1.143-2.558-2.558c0-1.405,1.153-2.549,2.558-2.549   c1.415,0,2.559,1.144,2.559,2.549C34.735,31.47,33.591,32.614,32.176,32.614z M40.23,32.614c-1.405,0-2.549-1.143-2.549-2.558   c0-1.405,1.144-2.549,2.549-2.549c1.415,0,2.559,1.144,2.559,2.549C42.788,31.47,41.645,32.614,40.23,32.614z"/><g><path d="M16.899,14.52h-5.928c-0.715,0-1.378,0.216-1.934,0.581l-3.42-3.42c-0.378-0.378-0.992-0.378-1.371,0    c-0.379,0.378-0.379,0.992,0,1.371l3.524,3.524c-0.209,0.451-0.333,0.949-0.333,1.478v3.806c0,0.325,0.263,0.588,0.588,0.588    h8.874c0.325,0,0.588-0.263,0.588-0.588v-6.751C17.487,14.784,17.224,14.52,16.899,14.52z"/><path d="M40.003,20.044h-7.924c-0.325,0-0.588-0.263-0.588-0.588V8.877c0-0.325-0.263-0.588-0.588-0.588h-0.885V4.422    c0.026,0.016,0.037,0.043,0.067,0.055L32.083,5.3c0.64,0.263,1.342-0.207,1.342-0.899V3.467c0-0.692-0.702-1.163-1.342-0.899    L30.084,3.39c-0.072,0.029-0.111,0.086-0.161,0.133c-0.154-0.331-0.485-0.564-0.874-0.564h0c-0.389,0-0.72,0.233-0.874,0.564    c-0.051-0.048-0.09-0.104-0.161-0.133l-1.999-0.823c-0.64-0.263-1.342,0.207-1.342,0.899v0.934c0,0.692,0.702,1.163,1.342,0.899    l1.999-0.822c0.03-0.012,0.041-0.04,0.066-0.055v3.866h-8.047c-0.325,0-0.588,0.263-0.588,0.588V21.86    c0,0.325,0.263,0.588,0.588,0.588h19.97c0.325,0,0.588-0.263,0.588-0.588v-1.227C40.591,20.308,40.327,20.044,40.003,20.044z"/><path d="M43.99,8.421c-0.378-0.378-0.992-0.378-1.371,0l-3.69,3.69c-0.5-0.296-1.077-0.477-1.7-0.477h-3.214    c-0.325,0-0.588,0.263-0.588,0.588v5.294c0,0.325,0.263,0.588,0.588,0.588h5.987c0.325,0,0.588-0.263,0.588-0.588v-2.521    c0-0.525-0.131-1.015-0.345-1.458l3.746-3.746C44.369,9.413,44.369,8.8,43.99,8.421z"/></g><path d="M47.934,43.324c-1.449,0-2.209-0.356-2.879-0.67c-1.435-0.673-2.74-0.673-4.176,0c-1.938,0.906-3.817,0.907-5.756,0   c-1.432-0.673-2.738-0.674-4.171,0c-1.929,0.903-3.805,0.91-5.75,0c-1.432-0.673-2.738-0.674-4.171,0c-1.923,0.9-3.8,0.913-5.75,0   c-1.433-0.673-2.737-0.673-4.17,0c-1.934,0.906-3.817,0.908-5.75-0.001c-0.588-0.275-1.052-0.493-2.083-0.493   c-0.514,0-0.93-0.416-0.93-0.93c0-0.514,0.416-0.93,0.93-0.93c1.446,0,2.205,0.356,2.874,0.67c1.433,0.673,2.737,0.673,4.169,0   c1.935-0.906,3.816-0.908,5.751,0.001c1.433,0.671,2.735,0.673,4.169-0.001c1.935-0.906,3.817-0.908,5.752,0.001   c1.434,0.671,2.733,0.673,4.169,0c1.934-0.908,3.815-0.908,5.752-0.001c1.425,0.669,2.731,0.677,4.176,0   c1.927-0.902,3.808-0.911,5.755,0c0.59,0.276,1.055,0.494,2.09,0.494c0.514,0,0.93,0.416,0.93,0.93S48.448,43.324,47.934,43.324z"/><path d="M47.934,47.496c-1.449,0-2.209-0.356-2.879-0.67c-1.435-0.673-2.74-0.673-4.176,0c-1.938,0.906-3.817,0.907-5.756,0   c-1.432-0.673-2.738-0.674-4.171,0c-1.929,0.903-3.805,0.91-5.75,0c-1.432-0.673-2.738-0.674-4.171,0c-1.923,0.9-3.8,0.913-5.75,0   c-1.433-0.673-2.737-0.673-4.17,0c-1.934,0.906-3.817,0.908-5.75-0.001c-0.588-0.275-1.052-0.493-2.083-0.493   c-0.514,0-0.93-0.416-0.93-0.93c0-0.514,0.416-0.93,0.93-0.93c1.446,0,2.205,0.356,2.874,0.67c1.433,0.673,2.737,0.673,4.169,0   c1.935-0.906,3.816-0.908,5.751,0.001c1.433,0.671,2.735,0.673,4.169-0.001c1.935-0.906,3.817-0.908,5.752,0.001   c1.434,0.671,2.733,0.673,4.169,0c1.934-0.908,3.815-0.908,5.752-0.001c1.425,0.669,2.731,0.677,4.176,0   c1.927-0.902,3.808-0.911,5.755,0c0.59,0.276,1.055,0.494,2.09,0.494c0.514,0,0.93,0.416,0.93,0.93S48.448,47.496,47.934,47.496z"/></g><text x="0" y="65" fill="#000000" font-size="5px" font-weight="bold" font-family="'Helvetica Neue', Helvetica, Arial-Unicode, Arial, Sans-serif">Created by Vectors Market</text><text x="0" y="70" fill="#000000" font-size="5px" font-weight="bold" font-family="'Helvetica Neue', Helvetica, Arial-Unicode, Arial, Sans-serif">from the Noun Project</text></svg>