<svg fill="white" xmlns="http://www.w3.org/2000/svg" viewBox="7.5 -10.0 105 110.0">
 <path d="m58.91 6.0078c15.148 2.6602 19.445 11.27 28.977 12.434 1.0508 0.14453 1.9492 0.82031 2.3789 1.7891s0.32422 2.0938-0.27344 2.9648c-4.4648 6.5781-12.453 18.23-17.805 26.031l-7.1602-0.003906h-5.1797v-0.070312l-0.93359-43.152z" fill-rule="evenodd"/>
 <path d="m48.977 49.227h7.7422l-0.9375-43.285c-0.023438-1.1328-0.94922-2.0391-2.082-2.0391h-1.7031c-1.1328 0-2.0586 0.90625-2.082 2.0391l-0.9375 43.281z" fill-rule="evenodd"/>
 <path d="m24.145 78.801h0.066407c1.4023 0 2.7305 0.62891 3.6211 1.7148 0.83594 1.0195 2.2227 1.6133 3.7539 1.6133s2.918-0.59766 3.7539-1.6133c0.89062-1.0859 2.2188-1.7148 3.6211-1.7148 1.4023 0 2.7344 0.62891 3.6211 1.7148 0.83594 1.0195 2.2227 1.6133 3.7539 1.6133 1.5195 0 2.8984-0.59766 3.7305-1.6133 0.89062-1.0859 2.2188-1.7148 3.6211-1.7148s2.7344 0.62891 3.6211 1.7148c0.83594 1.0195 2.2227 1.6133 3.7539 1.6133s2.918-0.59766 3.7539-1.6133c0.89062-1.0859 2.2188-1.7148 3.625-1.7148 1.4023 0 2.7305 0.62891 3.6211 1.7148 0.83594 1.0195 2.2227 1.6133 3.7539 1.6133s2.918-0.59766 3.7539-1.6133c0.89063-1.0859 2.2188-1.7148 3.6211-1.7148s2.7305 0.62891 3.6211 1.7148c0.47266 0.57422 1.1172 1.0156 1.8672 1.2891 0.58594-0.64844 1.1328-1.332 1.6406-2.043 2.6367-3.7227 4.8242-9.0117 6.0898-14.629h-86.977c4.2852 4.4453 9.9219 7.4336 13.762 12.316 0.34375 0.4375 0.65625 0.89062 0.94531 1.3555z" fill-rule="evenodd"/>
 <path d="m6.8398 62.004h90.176c0.34766-2.1797 0.55078-4.3711 0.58203-6.5117 0.003906-0.83203-0.32031-1.6289-0.90625-2.2148-0.58594-0.58984-1.3789-0.91797-2.2109-0.91797-13.844-0.007813-71.125-0.007813-87.812-0.007813-1.0703 0-2.0625 0.54688-2.6367 1.4453-0.57422 0.90234-0.64844 2.0352-0.19531 3 0.85156 1.8086 1.8281 3.5547 3.0078 5.207z" fill-rule="evenodd"/>
 <path d="m96.715 82.516c-1.3828 1.6719-3.6289 2.7344-6.1484 2.7344-2.5312 0-4.7852-1.0742-6.168-2.7578-0.29688-0.36328-0.73828-0.57031-1.207-0.57031s-0.91016 0.21094-1.207 0.57031c-1.3828 1.6836-3.6367 2.7578-6.168 2.7578s-4.7852-1.0742-6.168-2.7578c-0.29688-0.36328-0.73828-0.57031-1.207-0.57031s-0.91016 0.21094-1.207 0.57031c-1.3828 1.6836-3.6367 2.7578-6.168 2.7578s-4.7852-1.0742-6.168-2.7578c-0.29688-0.36328-0.74219-0.57031-1.207-0.57031-0.46875 0-0.91016 0.21094-1.207 0.57031-1.3828 1.6836-3.625 2.7578-6.1445 2.7578-2.5312 0-4.7852-1.0742-6.168-2.7578-0.29688-0.36328-0.74219-0.57031-1.207-0.57031-0.46875 0-0.91016 0.21094-1.207 0.57031-1.3828 1.6836-3.6367 2.7578-6.168 2.7578s-4.7852-1.0742-6.168-2.7578c-0.29688-0.36328-0.73828-0.57031-1.207-0.57031s-0.91016 0.21094-1.207 0.57031c-1.3828 1.6836-3.6367 2.7578-6.168 2.7578s-4.7852-1.0742-6.168-2.7578c-0.29688-0.36328-0.74219-0.57031-1.207-0.57031-0.46875 0-0.91016 0.21094-1.207 0.57031-1.3828 1.6836-3.6367 2.7578-6.168 2.7578-0.86328 0-1.5625 0.69922-1.5625 1.5625s0.69922 1.5625 1.5625 1.5625c2.8711 0 5.4688-1.0234 7.375-2.6641 1.9102 1.6406 4.5078 2.6641 7.375 2.6641 2.8672 0 5.4648-1.0234 7.375-2.6641 1.9062 1.6406 4.5039 2.6641 7.375 2.6641 2.8672 0 5.4688-1.0234 7.375-2.6641 1.9062 1.6406 4.5078 2.6641 7.375 2.6641 2.8594 0 5.4492-1.0234 7.3555-2.6641 1.9062 1.6445 4.5039 2.6641 7.375 2.6641 2.8711 0 5.4688-1.0234 7.375-2.6641 1.9062 1.6406 4.5039 2.6641 7.375 2.6641 2.8672 0 5.4688-1.0234 7.375-2.6641 1.9062 1.6406 4.5078 2.6641 7.375 2.6641 3.5156 0 6.6289-1.5352 8.5547-3.8672 0.55078-0.66406 0.45703-1.6484-0.20703-2.1992-0.66406-0.55078-1.6484-0.45703-2.1992 0.20703z" fill-rule="evenodd"/>
 <path d="m96.715 90.234c-1.3828 1.6719-3.6289 2.7344-6.1484 2.7344-2.5312 0-4.7852-1.0742-6.168-2.7578-0.29688-0.36328-0.73828-0.57031-1.207-0.57031s-0.91016 0.21094-1.207 0.57031c-1.3828 1.6836-3.6367 2.7578-6.168 2.7578s-4.7852-1.0742-6.168-2.7578c-0.29688-0.36328-0.73828-0.57031-1.207-0.57031s-0.91016 0.21094-1.207 0.57031c-1.3828 1.6836-3.6367 2.7578-6.168 2.7578s-4.7852-1.0742-6.168-2.7578c-0.29688-0.36328-0.74219-0.57031-1.207-0.57031-0.46875 0-0.91016 0.21094-1.207 0.57031-1.3828 1.6836-3.625 2.7578-6.1445 2.7578-2.5312 0-4.7852-1.0742-6.168-2.7578-0.29688-0.36328-0.74219-0.57031-1.207-0.57031-0.46875 0-0.91016 0.21094-1.207 0.57031-1.3828 1.6836-3.6367 2.7578-6.168 2.7578s-4.7852-1.0742-6.168-2.7578c-0.29688-0.36328-0.73828-0.57031-1.207-0.57031s-0.91016 0.21094-1.207 0.57031c-1.3828 1.6836-3.6367 2.7578-6.168 2.7578s-4.7852-1.0742-6.168-2.7578c-0.29688-0.36328-0.74219-0.57031-1.207-0.57031-0.46875 0-0.91016 0.21094-1.207 0.57031-1.3828 1.6836-3.6367 2.7578-6.168 2.7578-0.86328 0-1.5625 0.69922-1.5625 1.5625s0.69922 1.5625 1.5625 1.5625c2.8711 0 5.4688-1.0234 7.375-2.6641 1.9102 1.6445 4.5078 2.6641 7.375 2.6641 2.8672 0 5.4648-1.0234 7.375-2.6641 1.9062 1.6445 4.5039 2.6641 7.375 2.6641 2.8672 0 5.4688-1.0234 7.375-2.6641 1.9062 1.6445 4.5078 2.6641 7.375 2.6641 2.8594 0 5.4492-1.0234 7.3555-2.6641 1.9062 1.6406 4.5039 2.6641 7.375 2.6641 2.8711 0 5.4688-1.0234 7.375-2.6641 1.9062 1.6445 4.5039 2.6641 7.375 2.6641 2.8672 0 5.4688-1.0234 7.375-2.6641 1.9062 1.6445 4.5078 2.6641 7.375 2.6641 3.5156 0 6.6289-1.5352 8.5547-3.8672 0.55078-0.66406 0.45703-1.6484-0.20703-2.1992-0.66406-0.55078-1.6484-0.45703-2.1992 0.20703z" fill-rule="evenodd"/>
</svg>