<svg fill="white" xmlns="http://www.w3.org/2000/svg" version="1.1" viewBox="7.5 -10.0 90 90.0">
 <path d="m32.191 33.344c-0.050781-2.4648 0.64844-5.2109 1.5938-7.5234 0.32812-0.80078 0.68359-1.5469 1.0469-2.2188 0.375 1.543 0.75 2.5195 1.0859 3.3945 0.41797 1.0938 0.77344 2.0234 0.98047 3.6953 0.20703 1.6914 0.25391 3.2461 0.050781 4.7109-0.19141 1.3945-0.60938 2.7188-1.3242 4.0117-0.20703-0.09375-0.40625-0.19531-0.59766-0.30859-2.0039-1.1875-2.7852-3.3359-2.8398-5.7578zm25.434-1.5938c0.125 0.074219 0.25781 0.14453 0.39062 0.20703 0.14453-0.34375 0.28125-0.65234 0.41016-0.94141 0.65234-1.4648 1.0664-2.3867 0.80859-4.4922-0.16797-1.375-0.53516-2.5078-0.94531-3.7773-0.28125-0.875-0.58594-1.8086-0.86328-2.9375-0.26172 0.49219-0.51562 1.0312-0.75391 1.6094-0.73828 1.8047-1.2852 3.9453-1.2461 5.8672 0.039063 1.8789 0.64453 3.543 2.1953 4.4609zm24.852 36.809c0.13672 0.078125 0.27734 0.15234 0.42188 0.22266 0.30859-0.52734 0.75391-1.4531 1.0234-2.6133 0.19531-0.84375 0.29297-1.8086 0.16406-2.832-0.16797-1.375-0.53516-2.5078-0.94531-3.7773-0.28125-0.875-0.58594-1.8086-0.86328-2.9375-0.26172 0.49219-0.51562 1.0312-0.75391 1.6094-0.73828 1.8047-1.2852 3.9453-1.2461 5.8672 0.039062 1.8789 0.64453 3.543 2.1953 4.4609zm-6.4453 8.3984c-0.47656 1.3906-0.92969 2.707-1.9648 3.5469-0.85547 0.69141-1.6328 0.90625-2.2422 0.76562-0.36328-0.085937-0.66406-0.28906-0.88672-0.59375-0.21094-0.28906-0.34375-0.66797-0.38672-1.1133-0.11328-1.1719 0.42188-2.832 1.9219-4.5 0.96484-1.0742 1.7266-2.3789 2.293-3.8047 1.0117-2.5586 1.3867-5.4844 1.1328-8.1133-0.25-2.6055-1.1211-4.9023-2.5898-6.2227-0.29688-0.26562-0.61328-0.49219-0.95703-0.67188 0.12891 0.69922 0.22656 1.4102 0.29688 2.1133 0.19922 1.9766 0.16797 3.9023-0.078126 5.3672-0.25781 1.5469-0.77734 2.6094-1.543 2.7656-0.035156 0.007812-0.066406 0.011718-0.10156 0.015625-1.5039 0.15234-2.0547-0.42188-2.1641-1.5469-0.074219-0.73828 0.0625-1.7148 0.22656-2.8867 0.24219-1.7227 0.54297-3.8828 0.3125-6.2695-0.24219-2.5234-1.207-4.6094-2.1328-6.6133-1.8164-3.9258-3.4883-7.543 0.41797-13.574-7.7891 1.9062-6.5742 9.1602-5.6797 14.516 0.47266 2.8242 0.85938 5.1445-0.17578 6.0586-0.32031 0.28516-0.625 0.44922-0.91016 0.51172-0.44141 0.09375-0.82031-0.050781-1.1328-0.39062-0.28125-0.30469-0.50781-0.77344-0.67578-1.3633-0.35938-1.2461-0.48047-3.082-0.36719-5.1211-2.7344 3.9297-2.3203 8.082-1.9961 11.316 0.23047 2.2969 0.41406 4.1484-0.57813 5.2305-0.03125 0.035156-0.070312 0.0625-0.11719 0.078125-1.668 0.51172-2.582-0.12109-2.9922-1.4609-0.87891-2.8828 0.79687-9.2422 2.0586-14.016 0.61719-2.3438 1.1328-4.3008 1.1875-5.2344 0-0.011719 0.003907-0.023438 0.003907-0.039063 0.4375-1.957 0.27344-3.2617 0.10937-4.5781-0.23828-1.8828-0.47656-3.793 0.94141-7.5859-3.3047 0.1875-3.9922 2.9844-4.5742 5.3633-0.35547 1.4453-0.67188 2.75-1.5117 3.3477-0.61719 0.4375-1.1523 0.625-1.6094 0.60547-0.52344-0.023437-0.92969-0.30469-1.2188-0.78516-0.26562-0.4375-0.43359-1.0469-0.50391-1.7656-0.19141-1.9727 0.34375-4.8516 1.5273-7.375 0.089844-0.1875 0.17578-0.38672 0.26562-0.59375 1.4883-3.4844 2.293-8.2031 1.8594-12.453-0.42188-4.1406-2.0156-7.832-5.2891-9.4727 0.625 3.1406 0.80078 7.0352 0.30469 10.766-0.44531 3.3516-1.4297 6.5781-3.1094 9.0273-5.082 7.4141-3.3398 14.27-2.1133 19.094 0.76563 3.0078 1.3359 5.2578-0.015624 6.4883-0.023438 0.023438-0.054688 0.042969-0.089844 0.054688-0.54688 0.19141-1.0625 0.23438-1.543 0.15234-0.81641-0.14062-1.5234-0.63672-2.1211-1.3867-0.57812-0.72266-1.0547-1.6836-1.4297-2.7734-1.0078-2.9102-1.3164-6.7812-0.95703-9.5391-1.832 1.207-3.0195 2.9219-3.6445 4.8164-0.75781 2.3008-0.67969 4.8594 0.089844 7.0938 0.58594 1.6992 1.2266 2.8945 1.6992 3.7812 0.78906 1.4727 1.1562 2.1641 0.15625 2.8281-0.44141 0.29297-0.86328 0.47266-1.2617 0.53516-0.44141 0.070313-0.85156 0.003907-1.2344-0.19922-0.36719-0.19922-0.70312-0.52344-1.0039-0.97266-0.64062-0.96094-1.1328-2.5234-1.4844-4.6797-0.19922-1.2148-0.65625-2.0586-1.1406-2.9414-1.1406-2.082-2.3984-4.3906-0.90234-12.062-1.9141 0.82031-3.5117 2.6602-4.6641 4.8359-1.4297 2.707-2.168 5.9219-1.9688 8.3672 0.98437 12.039 4.6328 15.684 6.4258 17.477 0.90625 0.90625 1.3906 1.3867 0.93359 2.2109-0.4375 0.78516-0.91406 0.94141-1.4453 0.64453-0.74609-0.41406-1.5312-1.8828-2.4961-3.6797-1.9062-3.5586-4.5352-8.457-8.5273-8.4609 0.97266 0.71875 2.2852 2.2812 3.1562 4.6289 1.0742 2.8906 1.4922 6.9844-0.19531 12.172-0.17578 0.54297-0.37891 1.1055-0.60938 1.6875-2.1992 5.5273 0.60156 8.7188 1.0859 9.2422h16.211c-0.50781-4.1484 1.3672-6.0938 3.0391-7.8242 1.7578-1.8164 3.2734-3.3867 1.1953-7.2812-0.023437-0.039063-0.039063-0.082031-0.039063-0.13281 0-0.13672 0.10938-0.24609 0.24609-0.24609 2.8242 0 3.3711 1.6094 3.832 2.9727 0.22266 0.65625 0.42187 1.2461 0.86719 1.4766 0.42969 0.22266 0.77344 0.28906 1.0312 0.23828 0.21484-0.042969 0.375-0.17188 0.48828-0.36719 0.125-0.22266 0.19141-0.52344 0.20312-0.87891 0.023438-0.90625-0.33594-2.1133-1.0352-3.1914-0.46875-0.72266-0.85938-1.5664-1.1367-2.4648-0.48047-1.5508-0.63281-3.2734-0.3125-4.8438 0.32422-1.5859 1.1328-3.0117 2.5742-3.9453 0.46484-0.30469 1-0.55469 1.6016-0.73828 0.042968-0.011719 0.09375-0.015625 0.14062 0 0.12891 0.039063 0.20313 0.17578 0.16406 0.30469-0.48047 1.5781-0.625 3.5898-0.27344 5.5156 0.30078 1.6289 0.95703 3.1953 2.0742 4.3789 3.6836 3.8945 2.4336 7.4648 1.5508 9.9766-0.47656 1.3555-0.83203 2.3711-0.16406 2.8477 0.39453 0.09375 0.75781 0.09375 1.082 0.015625 0.59766-0.14062 1.0977-0.54297 1.4922-1.0977 0.41016-0.57422 0.71094-1.3047 0.90625-2.0742 0.30859-1.2305 0.34375-2.5586 0.11719-3.5195-0.011719-0.046876-0.007812-0.10156 0.011719-0.14844 0.050781-0.125 0.19531-0.18359 0.32031-0.12891 0.12109 0.050781 0.22656 0.097656 0.32031 0.14453 1.4688 0.69922 2.3867 1.7188 2.8242 2.8398 0.4375 1.125 0.39062 2.3438-0.070313 3.4375-0.027343 0.070312-0.058593 0.13281-0.085937 0.19141l-0.007813 0.011719c-0.12891 0.26953-0.26562 0.55078-0.40234 0.82812-0.83984 1.7266-1.6367 3.3594-1.1172 3.7109h22.988c3.5234-1.7617 1.7188-6.4023 1.6055-6.6836-0.003906-0.007812-0.007812-0.015624-0.011719-0.027343-0.53125-1.6367-0.58594-4.0625 0.58594-6.5156 0.80469-1.6875 2.1914-3.3906 4.4062-4.8555-7.1719-0.74609-8.2969 2.5195-9.2969 5.4336zm-50.844-39.059c0.10156-0.050782 0.20312-0.10156 0.30078-0.16016 1.2578-0.74219 1.7461-2.0977 1.7773-3.6211 0.03125-1.5703-0.41406-3.3164-1.0156-4.793-0.17578-0.42969-0.36719-0.83984-0.5625-1.2148-0.22266 0.87109-0.44531 1.4492-0.64453 1.9688-0.26562 0.69531-0.49219 1.2852-0.62109 2.3516-0.13281 1.0781-0.16016 2.0664-0.03125 3 0.11719 0.85937 0.37109 1.6758 0.80078 2.4727z" fill-rule="evenodd"/>
</svg>