<svg xmlns="http://www.w3.org/2000/svg" xmlns:xlink="http://www.w3.org/1999/xlink" xml:space="preserve" version="1.1" style="shape-rendering:geometricPrecision;text-rendering:geometricPrecision;image-rendering:optimizeQuality;" viewBox="0 0 846.66 1058.325" x="0px" y="0px" fill-rule="evenodd" clip-rule="evenodd"><defs><style type="text/css">
   
    .fil0 {fill:white}
   
  </style></defs><g><path class="fil0" d="M41.17 743.9c0,-157.07 100.39,-257.2 228.37,-300.42 37.37,54.26 91.44,95.05 153.79,95.05 62.35,0 116.42,-40.79 153.79,-95.05 127.99,43.24 228.37,143.35 228.37,300.42l-164.22 0 0 -171.93 -22.91 0 0 171.93 -390.06 0 0 -171.93 -22.91 0 0 171.93 -164.22 0zm382.16 -641.15c102.22,0 185.09,80.43 185.09,179.64 0,99.21 -82.87,233.23 -185.09,233.23 -102.22,0 -185.09,-134.02 -185.09,-233.23 0,-99.21 82.87,-179.64 185.09,-179.64z"/></g></svg>