<svg fill="white" xmlns="http://www.w3.org/2000/svg" data-name="Layer 1" viewBox="0 0 68 85" x="0px" y="0px"><title>Artboard 41@5x</title><path d="M65.25,51.3A13.92,13.92,0,0,1,51.33,65.21H16.68A13.92,13.92,0,0,1,2.75,51.3H23V47H45V51.3Z"/><path d="M56.43,24.31h-1.7v-3.7a3.54,3.54,0,0,0-3.53-3.54H36.29v-12a2.29,2.29,0,1,0-4.58,0v12H16.81a3.54,3.54,0,0,0-3.54,3.54v3.7h-1.7a4.06,4.06,0,1,0,0,8.12h1.7v9A3.53,3.53,0,0,0,16.81,45H51.2a3.53,3.53,0,0,0,3.53-3.53v-9h1.7a4.06,4.06,0,1,0,0-8.12ZM18.79,26.94a4.8,4.8,0,1,1,4.8,4.8A4.8,4.8,0,0,1,18.79,26.94ZM43.52,41.46h-19v-5h19Zm.9-9.72a4.8,4.8,0,1,1,4.8-4.8A4.8,4.8,0,0,1,44.42,31.74Z"/></svg>