<svg fill="white" xmlns="http://www.w3.org/2000/svg" viewBox="7.5 -10.0 90 100.0">
 <path d="m71.875 37.5h1.5859c1.2383 0 2.4219 0.49219 3.2969 1.3672s1.3672 2.0586 1.3672 3.2969v6.4375c-0.66406-0.10547-1.3359-0.16406-2.0195-0.16406h-27.277l6.3516-8.4688c1.1641-1.5547 2.9922-2.4688 4.9336-2.4688h5.2266c1.5195-0.22656 3-0.8125 4.3242-1.6953l1.6289-1.0859c0.18359-0.125 0.37891-0.23047 0.57812-0.32031v3.1016zm-64.227-1.7266c-0.85938-0.085938-1.4805-0.85938-1.3906-1.7148 0.089844-0.85547 0.85938-1.4805 1.7148-1.3906 1.3242 0.13672 2.625-0.66406 4.6172-1.9531 0.023437-0.011719 0.046875-0.027344 0.070312-0.039063 2.8789-1.6484 6.4297-1.5547 9.1992 0.23047 0.55469 0.25 1.0703 0.58203 1.5703 0.91406 1.8984 1.2656 4.3672 1.2656 6.2617 0l1.5039-1c2.8711-1.9141 6.6094-1.9141 9.4805 0l1.6289 1.0859c1.8203 1.2109 4.1953 1.2109 6.0117 0l1.6289-1.0859c2.8711-1.9141 6.6094-1.9141 9.4805 0l1.6289 1.0859c1.8203 1.2109 4.1953 1.2109 6.0117 0l1.6289-1.0859c2.8711-1.9141 6.6094-1.9141 9.4805 0l1.2031 0.80078c2.2852 1.5234 5.2773 1.4297 7.4648-0.22656 1.3047-1.0586 2.7266-1.8594 5.3398-1.8594 0.86328 0 1.5625 0.69922 1.5625 1.5625 0 0.86328-0.69922 1.5625-1.5625 1.5625-1.6602 0-2.5625 0.5-3.3945 1.1797-0.011718 0.007812-0.023437 0.023437-0.039062 0.03125-3.2461 2.4766-7.707 2.6172-11.102 0.35156l-1.207-0.80469c-1.8203-1.2148-4.1953-1.2148-6.0117 0l-1.6289 1.0859c-2.8711 1.9141-6.6094 1.9141-9.4805 0l-1.6289-1.0859c-1.8203-1.2148-4.1953-1.2148-6.0117 0l-1.6289 1.0859c-2.8711 1.9141-6.6094 1.9141-9.4805 0l-1.6289-1.0859c-1.8203-1.2148-4.1953-1.2148-6.0117 0l-1.5039 1c-2.9453 1.9648-6.7852 1.9648-9.7305 0-0.37109-0.24609-0.74609-0.50781-1.168-0.68359-0.09375-0.039063-0.18359-0.085937-0.26953-0.14453-1.8047-1.2031-4.1289-1.2891-5.9922-0.23438-2.8008 1.8047-4.7539 2.6172-6.6172 2.418zm82.969 23.273c0-2.8477 0.007812-6.25 0.007812-7.4922 0-0.86328 0.70312-1.5586 1.5664-1.5586 0.86328 0 1.5586 0.70312 1.5586 1.5664 0 1.7656-0.007812 7.9336-0.007812 10.602 0 0.12891 0.003906 0.25781 0.003906 0.25781 0.003906 0.070313 0.003906 0.14062-0.003906 0.21094l-0.003907 5.9297c0.007813 0.125 0.007813 0.24609-0.003906 0.36719l-0.007813 10.754c0 0.86328-0.70312 1.5625-1.5664 1.5625-0.85938 0-1.5586-0.69922-1.5586-1.5625l0.007813-7.4805-7.2031 6.3008c-2.0234 1.7695-4.6172 2.7422-7.3047 2.7422h-57.348c-3.3203 0-6.5-1.3203-8.8477-3.6641-2.3438-2.3477-3.6641-5.5273-3.6641-8.8477v-6.2305c0-3.3203 1.3203-6.5 3.6641-8.8477 2.3477-2.3438 5.5273-3.6641 8.8477-3.6641h57.348c2.6875 0 5.2812 0.97656 7.3047 2.7422l7.2109 6.3047zm-67.18 0.32422c-2.5859 0-4.6875 2.1016-4.6875 4.6875 0 2.5859 2.1016 4.6875 4.6875 4.6875s4.6875-2.1016 4.6875-4.6875c0-2.5859-2.1016-4.6875-4.6875-4.6875zm21.875 0c-2.5859 0-4.6875 2.1016-4.6875 4.6875 0 2.5859 2.1016 4.6875 4.6875 4.6875s4.6875-2.1016 4.6875-4.6875c0-2.5859-2.1016-4.6875-4.6875-4.6875zm21.875 0c-2.5859 0-4.6875 2.1016-4.6875 4.6875 0 2.5859 2.1016 4.6875 4.6875 4.6875s4.6875-2.1016 4.6875-4.6875c0-2.5859-2.1016-4.6875-4.6875-4.6875zm-4.6875-28.457v-4.3555c0-0.86328 0.69922-1.5625 1.5625-1.5625h1.5625v-3.125h-2.1484c-0.85937 0-1.5625-0.69922-1.5586-1.5625 0-0.86328 0.69922-1.5625 1.5625-1.5625h3.7109c0.86328 0 1.5625 0.69922 1.5625 1.5625v4.6875h1.5625c0.86328 0 1.5625 0.69922 1.5625 1.5625v1.3789c-1.418 0.22266-2.8008 0.74609-4.043 1.5781l-1.6289 1.0859c-1.1094 0.74219-2.5078 0.84375-3.7031 0.31641z" fill-rule="evenodd"/>
</svg>